<svg width="260" height="260" viewBox="0 0 260 260" fill="none" xmlns="http://www.w3.org/2000/svg">
<g clip-path="url(#clip0_1_14)">
<rect width="260" height="260" fill="#48E5C2"/>
<path fill-rule="evenodd" clip-rule="evenodd" d="M24.37 16C24.57 16.65 24.76 17.32 24.91 18H21.17L22.34 20.34L22.79 21.24L22.55 21.35V28C23.3367 28.5901 23.9319 29.3991 24.2611 30.3258C24.5903 31.2525 24.639 32.2557 24.401 33.2098C24.1629 34.164 23.6488 35.0268 22.923 35.6903C22.1971 36.3538 21.2917 36.7885 20.32 36.94L20.3 37C19.8564 38.7179 18.8544 40.2396 17.4514 41.3258C16.0485 42.4119 14.3243 43.0009 12.55 43H-7.45C-9.22254 42.9987 -10.9445 42.4087 -12.3454 41.3227C-13.7463 40.2368 -14.7469 38.7163 -15.19 37L-15.21 36.94C-16.1825 36.79 -17.089 36.3565 -17.8162 35.6936C-18.5434 35.0308 -19.0588 34.1681 -19.298 33.2137C-19.5371 32.2592 -19.4893 31.2554 -19.1606 30.328C-18.8319 29.4006 -18.2368 28.5908 -17.45 28V21.24L-18.24 19.66L-18.68 18.76L-17.78 18.32L-17.15 18H-20C-18.8981 13.0684 -16.2034 8.63674 -12.3321 5.38912C-8.4607 2.14149 -3.62793 0.258554 1.42011 0.0310108C6.46816 -0.196532 11.4507 1.24397 15.5986 4.13013C19.7464 7.01628 22.8289 11.1876 24.37 16V16ZM-12.45 18C-12.6024 17.9994 -12.7529 18.0336 -12.89 18.1L-15.99 19.66L-15.1 21.45L-13.79 20.79C-13.3726 20.5806 -12.912 20.4716 -12.445 20.4716C-11.978 20.4716 -11.5174 20.5806 -11.1 20.79L-8.9 21.89C-8.76042 21.9603 -8.6063 21.997 -8.45 21.997C-8.2937 21.997 -8.13958 21.9603 -8 21.89L-5.79 20.79C-5.37256 20.5806 -4.912 20.4716 -4.445 20.4716C-3.978 20.4716 -3.51744 20.5806 -3.1 20.79L-0.9 21.89C-0.760421 21.9603 -0.606299 21.997 -0.450001 21.997C-0.293702 21.997 -0.139579 21.9603 0 21.89L2.21 20.79C2.62744 20.5806 3.088 20.4716 3.555 20.4716C4.022 20.4716 4.48256 20.5806 4.9 20.79L7.1 21.89C7.23283 21.9571 7.37896 21.9937 7.52774 21.9972C7.67652 22.0007 7.8242 21.9709 7.96 21.91L10.84 20.64C11.2226 20.4705 11.6365 20.383 12.055 20.383C12.4735 20.383 12.8874 20.4705 13.27 20.64L16.15 21.91C16.2844 21.9693 16.4303 21.9983 16.5772 21.9948C16.7241 21.9914 16.8685 21.9556 17 21.89L20.1 20.34L19.21 18.55L17.79 19.26C17.3942 19.4583 16.9593 19.5665 16.5167 19.5769C16.0741 19.5872 15.6347 19.4995 15.23 19.32L12.46 18.09C12.3343 18.0327 12.1981 18.0021 12.06 18H12.05C11.9119 18.0021 11.7757 18.0327 11.65 18.09L8.87 19.32C8.4653 19.4995 8.02588 19.5872 7.58328 19.5769C7.14067 19.5665 6.70585 19.4583 6.31 19.26L4.01 18.11C3.87068 18.0386 3.71654 18.0009 3.56 18H3.55C3.39763 17.9994 3.24713 18.0336 3.11 18.1L0.9 19.22C0.48256 19.4294 0.0220049 19.5384 -0.445 19.5384C-0.912004 19.5384 -1.37256 19.4294 -1.79 19.22L-3.99 18.12C-4.12932 18.0486 -4.28346 18.0109 -4.44 18.01H-4.45C-4.60237 18.0094 -4.75287 18.0436 -4.89 18.11L-7.1 19.22C-7.51744 19.4294 -7.978 19.5384 -8.445 19.5384C-8.912 19.5384 -9.37256 19.4294 -9.79 19.22L-11.99 18.12C-12.1293 18.0486 -12.2835 18.0109 -12.44 18.01H-12.45V18ZM-12.45 16H-17.35C-15.9003 11.9061 -13.2176 8.36202 -9.67095 5.85545C-6.12429 3.34888 -1.888 2.003 2.455 2.003C6.798 2.003 11.0343 3.34888 14.5809 5.85545C18.1276 8.36202 20.8103 11.9061 22.26 16H20.17L20.11 15.87L19.85 16H-12.46H-12.45ZM17.9 23.68L19.26 23H20.56V25H-15.44V23.85L-15.1 23.68L-13.74 23H-11.15L-9.79 23.68C-9.37256 23.8894 -8.912 23.9984 -8.445 23.9984C-7.978 23.9984 -7.51744 23.8894 -7.1 23.68L-5.74 23H-3.15L-1.79 23.68C-1.37256 23.8894 -0.912004 23.9984 -0.445 23.9984C0.0220049 23.9984 0.48256 23.8894 0.9 23.68L2.26 23H4.85L6.21 23.68C6.60584 23.8783 7.04067 23.9865 7.48328 23.9969C7.92588 24.0072 8.3653 23.9195 8.77 23.74L10.44 23H13.67L15.34 23.74C15.7447 23.9195 16.1841 24.0072 16.6267 23.9969C17.0693 23.9865 17.5042 23.8783 17.9 23.68V23.68ZM-13.82 27L2.55 31.91L18.93 27H-13.82ZM-14.45 29H-14.11L2.55 34L19.22 29H19.55C20.3456 29 21.1087 29.3161 21.6713 29.8787C22.2339 30.4413 22.55 31.2044 22.55 32C22.55 32.7957 22.2339 33.5587 21.6713 34.1213C21.1087 34.6839 20.3456 35 19.55 35H-14.45C-15.2456 35 -16.0087 34.6839 -16.5713 34.1213C-17.1339 33.5587 -17.45 32.7957 -17.45 32C-17.45 31.2044 -17.1339 30.4413 -16.5713 29.8787C-16.0087 29.3161 -15.2456 29 -14.45 29V29ZM-13.1 37C-12.6868 38.1687 -11.9218 39.1807 -10.91 39.897C-9.89833 40.6133 -8.6896 40.9986 -7.45 41H12.55C13.7913 41.0007 15.0023 40.6163 16.016 39.8999C17.0297 39.1835 17.7962 38.1703 18.21 37H-13.1V37Z" fill="#9C92AC" fill-opacity="0.3"/>
<path fill-rule="evenodd" clip-rule="evenodd" d="M284.37 16C284.57 16.65 284.76 17.32 284.91 18H281.17L282.34 20.34L282.79 21.24L282.55 21.35V28C283.337 28.5901 283.932 29.3991 284.261 30.3258C284.59 31.2525 284.639 32.2557 284.401 33.2098C284.163 34.164 283.649 35.0268 282.923 35.6903C282.197 36.3538 281.292 36.7885 280.32 36.94L280.3 37C279.856 38.7179 278.854 40.2396 277.451 41.3258C276.048 42.4119 274.324 43.0009 272.55 43H252.55C250.777 42.9987 249.056 42.4087 247.655 41.3227C246.254 40.2368 245.253 38.7163 244.81 37L244.79 36.94C243.818 36.79 242.911 36.3565 242.184 35.6936C241.457 35.0308 240.941 34.1681 240.702 33.2137C240.463 32.2592 240.511 31.2554 240.839 30.328C241.168 29.4006 241.763 28.5908 242.55 28V21.24L241.76 19.66L241.32 18.76L242.22 18.32L242.85 18H240C241.102 13.0684 243.797 8.63674 247.668 5.38912C251.539 2.14149 256.372 0.258554 261.42 0.0310108C266.468 -0.196532 271.451 1.24397 275.599 4.13013C279.746 7.01628 282.829 11.1876 284.37 16V16ZM247.55 18C247.398 17.9994 247.247 18.0336 247.11 18.1L244.01 19.66L244.9 21.45L246.21 20.79C246.627 20.5806 247.088 20.4716 247.555 20.4716C248.022 20.4716 248.483 20.5806 248.9 20.79L251.1 21.89C251.24 21.9603 251.394 21.997 251.55 21.997C251.706 21.997 251.86 21.9603 252 21.89L254.21 20.79C254.627 20.5806 255.088 20.4716 255.555 20.4716C256.022 20.4716 256.483 20.5806 256.9 20.79L259.1 21.89C259.24 21.9603 259.394 21.997 259.55 21.997C259.706 21.997 259.86 21.9603 260 21.89L262.21 20.79C262.627 20.5806 263.088 20.4716 263.555 20.4716C264.022 20.4716 264.483 20.5806 264.9 20.79L267.1 21.89C267.233 21.9571 267.379 21.9937 267.528 21.9972C267.677 22.0007 267.824 21.9709 267.96 21.91L270.84 20.64C271.223 20.4705 271.636 20.383 272.055 20.383C272.473 20.383 272.887 20.4705 273.27 20.64L276.15 21.91C276.284 21.9693 276.43 21.9983 276.577 21.9948C276.724 21.9914 276.868 21.9556 277 21.89L280.1 20.34L279.21 18.55L277.79 19.26C277.394 19.4583 276.959 19.5665 276.517 19.5769C276.074 19.5872 275.635 19.4995 275.23 19.32L272.46 18.09C272.334 18.0327 272.198 18.0021 272.06 18H272.05C271.912 18.0021 271.776 18.0327 271.65 18.09L268.87 19.32C268.465 19.4995 268.026 19.5872 267.583 19.5769C267.141 19.5665 266.706 19.4583 266.31 19.26L264.01 18.11C263.871 18.0386 263.717 18.0009 263.56 18H263.55C263.398 17.9994 263.247 18.0336 263.11 18.1L260.9 19.21C260.483 19.4194 260.022 19.5284 259.555 19.5284C259.088 19.5284 258.627 19.4194 258.21 19.21L256.01 18.11C255.871 18.0386 255.717 18.0009 255.56 18H255.55C255.398 17.9994 255.247 18.0336 255.11 18.1L252.9 19.21C252.483 19.4194 252.022 19.5284 251.555 19.5284C251.088 19.5284 250.627 19.4194 250.21 19.21L248.01 18.11C247.871 18.0386 247.717 18.0009 247.56 18H247.55V18ZM247.55 16H242.65C244.1 11.9061 246.782 8.36202 250.329 5.85545C253.876 3.34888 258.112 2.003 262.455 2.003C266.798 2.003 271.034 3.34888 274.581 5.85545C278.128 8.36202 280.81 11.9061 282.26 16H280.17L280.11 15.87L279.85 16H247.54H247.55ZM277.9 23.68L279.26 23H280.56V25H244.56V23.85L244.9 23.68L246.26 23H248.85L250.21 23.68C250.627 23.8894 251.088 23.9984 251.555 23.9984C252.022 23.9984 252.483 23.8894 252.9 23.68L254.26 23H256.85L258.21 23.68C258.627 23.8894 259.088 23.9984 259.555 23.9984C260.022 23.9984 260.483 23.8894 260.9 23.68L262.26 23H264.85L266.21 23.68C266.606 23.8783 267.041 23.9865 267.483 23.9969C267.926 24.0072 268.365 23.9195 268.77 23.74L270.44 23H273.67L275.34 23.74C275.745 23.9195 276.184 24.0072 276.627 23.9969C277.069 23.9865 277.504 23.8783 277.9 23.68V23.68ZM246.18 27L262.55 31.91L278.93 27H246.18ZM245.55 29H245.89L262.55 34L279.22 29H279.55C280.346 29 281.109 29.3161 281.671 29.8787C282.234 30.4413 282.55 31.2044 282.55 32C282.55 32.7957 282.234 33.5587 281.671 34.1213C281.109 34.6839 280.346 35 279.55 35H245.55C244.754 35 243.991 34.6839 243.429 34.1213C242.866 33.5587 242.55 32.7957 242.55 32C242.55 31.2044 242.866 30.4413 243.429 29.8787C243.991 29.3161 244.754 29 245.55 29V29ZM246.9 37C247.313 38.1687 248.078 39.1807 249.09 39.897C250.102 40.6133 251.31 40.9986 252.55 41H272.55C273.791 41.0007 275.002 40.6163 276.016 39.8999C277.03 39.1835 277.796 38.1703 278.21 37H246.9Z" fill="#9C92AC" fill-opacity="0.3"/>
<path fill-rule="evenodd" clip-rule="evenodd" d="M159.5 21.02C158.882 19.2592 157.732 17.734 156.209 16.6554C154.687 15.5769 152.866 14.9984 151 15H109C107.134 14.9984 105.313 15.5769 103.791 16.6554C102.268 17.734 101.118 19.2592 100.5 21.02C98.9986 21.1454 97.5994 21.831 96.5803 22.9406C95.5612 24.0502 94.9969 25.5026 94.9994 27.0092C95.0019 28.5158 95.5711 29.9663 96.5939 31.0725C97.6167 32.1787 99.0182 32.8596 100.52 32.98C100.034 34.3382 99.8816 35.7934 100.076 37.2228C100.271 38.6522 100.806 40.0137 101.638 41.1925C102.47 42.3712 103.573 43.3326 104.854 43.9953C106.135 44.658 107.557 45.0026 109 45H151C152.442 45.0003 153.863 44.6542 155.143 43.9909C156.423 43.3275 157.525 42.3663 158.356 41.1882C159.187 40.0101 159.723 38.6496 159.919 37.2212C160.114 35.7927 159.964 34.3382 159.48 32.98C160.982 32.8596 162.383 32.1787 163.406 31.0725C164.429 29.9663 164.998 28.5158 165.001 27.0092C165.003 25.5026 164.439 24.0502 163.42 22.9406C162.401 21.831 161.001 21.1454 159.5 21.02V21.02ZM151 17H109C107.674 16.999 106.376 17.3744 105.255 18.0825C104.135 18.7906 103.238 19.8023 102.67 21H157.33C156.762 19.8023 155.865 18.7906 154.745 18.0825C153.624 17.3744 152.326 16.999 151 17V17ZM141.66 43C142.704 42.157 143.547 41.0906 144.125 39.8792C144.703 38.6678 145.002 37.3422 145 36H143C143 37.8565 142.262 39.637 140.95 40.9498C139.637 42.2625 137.857 43 136 43H131.66C132.704 42.157 133.547 41.0906 134.125 39.8792C134.703 38.6678 135.002 37.3422 135 36H133C133 37.8565 132.262 39.637 130.95 40.9498C129.637 42.2625 127.857 43 126 43H121.66C122.704 42.157 123.547 41.0906 124.125 39.8792C124.703 38.6678 125.002 37.3422 125 36H123C123 37.8565 122.262 39.637 120.95 40.9498C119.637 42.2625 117.857 43 116 43H109C107.143 43 105.363 42.2625 104.05 40.9498C102.737 39.637 102 37.8565 102 36C102 34.1435 102.737 32.363 104.05 31.0503C105.363 29.7375 107.143 29 109 29H151C152.857 29 154.637 29.7375 155.95 31.0503C157.262 32.363 158 34.1435 158 36C158 37.8565 157.262 39.637 155.95 40.9498C154.637 42.2625 152.857 43 151 43H141.66ZM109 27C107.52 27.0005 106.064 27.3658 104.759 28.0635C103.455 28.7612 102.342 29.7698 101.52 31H101C99.9391 31 98.9217 30.5786 98.1716 29.8284C97.4214 29.0783 97 28.0609 97 27C97 25.9391 97.4214 24.9217 98.1716 24.1716C98.9217 23.4214 99.9391 23 101 23H159C160.061 23 161.078 23.4214 161.828 24.1716C162.579 24.9217 163 25.9391 163 27C163 28.0609 162.579 29.0783 161.828 29.8284C161.078 30.5786 160.061 31 159 31H158.48C157.658 29.7698 156.545 28.7612 155.241 28.0635C153.936 27.3658 152.48 27.0005 151 27H109Z" fill="#9C92AC" fill-opacity="0.3"/>
<path fill-rule="evenodd" clip-rule="evenodd" d="M39 115C41.1217 115 43.1566 114.157 44.6569 112.657C46.1571 111.157 47 109.122 47 107C47 104.878 46.1571 102.843 44.6569 101.343C43.1566 99.8429 41.1217 99 39 99C36.8783 99 34.8434 99.8429 33.3431 101.343C31.8429 102.843 31 104.878 31 107C31 109.122 31.8429 111.157 33.3431 112.657C34.8434 114.157 36.8783 115 39 115ZM45 107C45 108.591 44.3679 110.117 43.2426 111.243C42.1174 112.368 40.5913 113 39 113C37.4087 113 35.8826 112.368 34.7574 111.243C33.6321 110.117 33 108.591 33 107C33 105.409 33.6321 103.883 34.7574 102.757C35.8826 101.632 37.4087 101 39 101C40.5913 101 42.1174 101.632 43.2426 102.757C44.3679 103.883 45 105.409 45 107ZM42 78V76H50V70H40C38.9391 70 37.9217 70.4214 37.1716 71.1716C36.4214 71.9217 36 72.9391 36 74V84H22L20.67 88L20 90H22.19L26 130H52L55.81 90H58L57.33 88L56 84H42V78ZM38 74V84H40V74H48V72H40C39.4696 72 38.9609 72.2107 38.5858 72.5858C38.2107 72.9609 38 73.4696 38 74ZM40 86H54.56L55.23 88H22.77L23.44 86H40ZM53.8 90H24.2L27.82 128H50.18L53.8 90Z" fill="#9C92AC" fill-opacity="0.3"/>
<path fill-rule="evenodd" clip-rule="evenodd" d="M129 92H123V96H117V100H111V114H108L108.24 116L112 148H148L151.76 116L152 114H149V100H143V96H137V92H129ZM147 114V102H143V106H146V114H147ZM144 114V108H140V114H144ZM138 120V104H134V123.17C135.6 122.47 136.97 121.37 138 120ZM132 123.8V100H128V123.8C129.32 124.068 130.68 124.068 132 123.8ZM126 123.17V104H122V120C123.038 121.384 124.416 122.476 126 123.17V123.17ZM120 114V108H116V114H120ZM114 114V106H117V102H113V114H114ZM141 102V98H137V102H140V106H141V102ZM135 102V94H131V98H134V102H135ZM129 98V94H125V102H126V98H129ZM123 102V98H119V106H120V102H123ZM130 126C132.835 125.999 135.579 124.995 137.745 123.164C139.91 121.334 141.357 118.796 141.83 116H149.75L146.22 146H113.78L110.25 116H118.17C118.643 118.796 120.09 121.334 122.255 123.164C124.421 124.995 127.165 125.999 130 126V126Z" fill="#9C92AC" fill-opacity="0.3"/>
<path fill-rule="evenodd" clip-rule="evenodd" d="M212 86V88H208V86H212ZM216 86H214V88H216V86ZM196 86V86.1C194.919 86.3203 193.942 86.8919 193.22 87.7256C192.497 88.5593 192.071 89.6084 192.007 90.7095C191.943 91.8107 192.245 92.902 192.866 93.8137C193.487 94.7253 194.392 95.4061 195.44 95.75L195.5 96L196.62 100.48C196.727 100.914 196.976 101.299 197.328 101.574C197.68 101.85 198.113 102 198.56 102H198.57L205.59 126.55C205.709 126.967 205.961 127.334 206.308 127.596C206.654 127.858 207.076 127.999 207.51 128H212.49C212.924 127.999 213.346 127.858 213.692 127.596C214.039 127.334 214.291 126.967 214.41 126.55L221.43 102C221.878 102.002 222.314 101.853 222.668 101.577C223.022 101.302 223.272 100.915 223.38 100.48L224.5 96L224.56 95.75C225.608 95.4061 226.513 94.7253 227.134 93.8137C227.755 92.902 228.057 91.8107 227.993 90.7095C227.929 89.6084 227.503 88.5593 226.78 87.7256C226.058 86.8919 225.081 86.3203 224 86.1V86C224 82.287 222.525 78.726 219.899 76.1005C217.274 73.475 213.713 72 210 72C206.287 72 202.726 73.475 200.101 76.1005C197.475 78.726 196 82.287 196 86ZM200 86H206V88H197C196.204 88 195.441 88.3161 194.879 88.8787C194.316 89.4413 194 90.2044 194 91C194 91.7956 194.316 92.5587 194.879 93.1213C195.441 93.6839 196.204 94 197 94H223C223.796 94 224.559 93.6839 225.121 93.1213C225.684 92.5587 226 91.7956 226 91C226 90.2044 225.684 89.4413 225.121 88.8787C224.559 88.3161 223.796 88 223 88H220V86H222C222 82.8174 220.736 79.7652 218.485 77.5147C216.235 75.2643 213.183 74 210 74C206.817 74 203.765 75.2643 201.515 77.5147C199.264 79.7652 198 82.8174 198 86H200ZM198.56 100L197.56 96H222.44L221.44 100H198.56ZM207.51 126L200.65 102H219.35L212.49 126H207.51V126ZM150 242C155.835 242 161.431 239.682 165.556 235.556C169.682 231.431 172 225.835 172 220C172 214.165 169.682 208.569 165.556 204.444C161.431 200.318 155.835 198 150 198C144.165 198 138.569 200.318 134.444 204.444C130.318 208.569 128 214.165 128 220C128 225.835 130.318 231.431 134.444 235.556C138.569 239.682 144.165 242 150 242ZM174 220C174 226.365 171.471 232.47 166.971 236.971C162.47 241.471 156.365 244 150 244C143.635 244 137.53 241.471 133.029 236.971C128.529 232.47 126 226.365 126 220C126 213.635 128.529 207.53 133.029 203.029C137.53 198.529 143.635 196 150 196C156.365 196 162.47 198.529 166.971 203.029C171.471 207.53 174 213.635 174 220ZM145.62 237.73L147.66 236.86C148.4 236.546 149.196 236.385 150 236.385C150.804 236.385 151.6 236.546 152.34 236.86L154.38 237.73C154.825 237.919 155.324 237.94 155.784 237.789C156.243 237.638 156.633 237.326 156.88 236.91L158.02 235.01C158.435 234.321 158.985 233.722 159.636 233.25C160.287 232.778 161.026 232.441 161.81 232.26L163.96 231.76C164.429 231.651 164.843 231.377 165.126 230.987C165.408 230.598 165.541 230.12 165.5 229.64L165.31 227.44C165.24 226.637 165.332 225.829 165.581 225.062C165.83 224.296 166.231 223.588 166.76 222.98L168.21 221.31C168.525 220.946 168.699 220.481 168.699 220C168.699 219.519 168.525 219.054 168.21 218.69L166.76 217.02C166.231 216.412 165.83 215.704 165.581 214.938C165.332 214.171 165.24 213.363 165.31 212.56L165.51 210.36C165.553 209.877 165.42 209.396 165.135 209.004C164.85 208.612 164.433 208.337 163.96 208.23L161.81 207.73C161.024 207.55 160.283 207.214 159.63 206.742C158.977 206.269 158.426 205.67 158.01 204.98L156.88 203.08C156.63 202.668 156.239 202.36 155.78 202.212C155.32 202.065 154.823 202.089 154.38 202.28L152.34 203.14C151.6 203.454 150.804 203.615 150 203.615C149.196 203.615 148.4 203.454 147.66 203.14L145.62 202.27C145.175 202.081 144.676 202.06 144.216 202.211C143.757 202.362 143.367 202.674 143.12 203.09L141.98 204.99C141.565 205.679 141.015 206.278 140.364 206.75C139.713 207.222 138.974 207.559 138.19 207.74L136.04 208.24C135.571 208.349 135.157 208.623 134.874 209.013C134.592 209.402 134.459 209.88 134.5 210.36L134.69 212.56C134.76 213.363 134.668 214.171 134.419 214.938C134.17 215.704 133.769 216.412 133.24 217.02L131.79 218.69C131.475 219.054 131.301 219.519 131.301 220C131.301 220.481 131.475 220.946 131.79 221.31L133.24 222.98C133.769 223.588 134.17 224.296 134.419 225.062C134.668 225.829 134.76 226.637 134.69 227.44L134.49 229.64C134.447 230.123 134.58 230.604 134.865 230.996C135.15 231.388 135.567 231.663 136.04 231.77L138.19 232.27C138.976 232.45 139.717 232.786 140.37 233.258C141.023 233.731 141.574 234.33 141.99 235.02L143.12 236.92C143.37 237.332 143.761 237.64 144.22 237.788C144.68 237.935 145.177 237.911 145.62 237.72V237.73ZM148.44 238.7C148.934 238.491 149.464 238.383 150 238.383C150.536 238.383 151.066 238.491 151.56 238.7L153.6 239.57C154.487 239.947 155.481 239.99 156.398 239.692C157.315 239.395 158.093 238.776 158.59 237.95L159.73 236.05C160.006 235.589 160.373 235.189 160.808 234.872C161.242 234.556 161.736 234.331 162.26 234.21L164.41 233.71C165.35 233.494 166.179 232.946 166.747 232.167C167.315 231.388 167.582 230.43 167.5 229.47L167.3 227.27C167.253 226.734 167.314 226.193 167.481 225.681C167.648 225.169 167.916 224.696 168.27 224.29L169.72 222.62C170.35 221.893 170.697 220.962 170.697 220C170.697 219.038 170.35 218.107 169.72 217.38L168.27 215.71C167.917 215.305 167.65 214.834 167.483 214.324C167.316 213.813 167.254 213.275 167.3 212.74L167.5 210.54C167.585 209.578 167.319 208.618 166.751 207.836C166.183 207.055 165.351 206.506 164.41 206.29L162.26 205.79C161.736 205.669 161.242 205.444 160.808 205.128C160.373 204.811 160.006 204.411 159.73 203.95L158.59 202.05C158.093 201.222 157.312 200.601 156.393 200.304C155.474 200.006 154.479 200.051 153.59 200.43L151.56 201.3C151.066 201.509 150.536 201.617 150 201.617C149.464 201.617 148.934 201.509 148.44 201.3L146.4 200.43C145.513 200.053 144.519 200.01 143.602 200.308C142.685 200.605 141.907 201.224 141.41 202.05L140.27 203.95C139.994 204.411 139.627 204.811 139.192 205.128C138.758 205.444 138.264 205.669 137.74 205.79L135.59 206.29C134.65 206.506 133.821 207.054 133.253 207.833C132.685 208.612 132.418 209.57 132.5 210.53L132.7 212.73C132.747 213.266 132.686 213.807 132.519 214.319C132.352 214.831 132.084 215.304 131.73 215.71L130.28 217.38C129.65 218.107 129.303 219.038 129.303 220C129.303 220.962 129.65 221.893 130.28 222.62L131.73 224.29C132.083 224.695 132.35 225.166 132.517 225.676C132.684 226.187 132.746 226.725 132.7 227.26L132.5 229.46C132.415 230.422 132.681 231.382 133.249 232.164C133.817 232.945 134.649 233.494 135.59 233.71L137.74 234.21C138.264 234.331 138.758 234.556 139.192 234.872C139.627 235.189 139.994 235.589 140.27 236.05L141.41 237.95C141.907 238.778 142.688 239.399 143.607 239.696C144.526 239.994 145.521 239.949 146.41 239.57L148.44 238.7ZM152 207C152 206.735 152.105 206.48 152.293 206.293C152.48 206.105 152.735 206 153 206C153.265 206 153.52 206.105 153.707 206.293C153.895 206.48 154 206.735 154 207C154 207.265 153.895 207.52 153.707 207.707C153.52 207.895 153.265 208 153 208C152.735 208 152.48 207.895 152.293 207.707C152.105 207.52 152 207.265 152 207ZM158 209C158 208.735 158.105 208.48 158.293 208.293C158.48 208.105 158.735 208 159 208C159.265 208 159.52 208.105 159.707 208.293C159.895 208.48 160 208.735 160 209C160 209.265 159.895 209.52 159.707 209.707C159.52 209.895 159.265 210 159 210C158.735 210 158.48 209.895 158.293 209.707C158.105 209.52 158 209.265 158 209ZM147 210C147 209.735 147.105 209.48 147.293 209.293C147.48 209.105 147.735 209 148 209C148.265 209 148.52 209.105 148.707 209.293C148.895 209.48 149 209.735 149 210C149 210.265 148.895 210.52 148.707 210.707C148.52 210.895 148.265 211 148 211C147.735 211 147.48 210.895 147.293 210.707C147.105 210.52 147 210.265 147 210ZM141 210C141 209.735 141.105 209.48 141.293 209.293C141.48 209.105 141.735 209 142 209C142.265 209 142.52 209.105 142.707 209.293C142.895 209.48 143 209.735 143 210C143 210.265 142.895 210.52 142.707 210.707C142.52 210.895 142.265 211 142 211C141.735 211 141.48 210.895 141.293 210.707C141.105 210.52 141 210.265 141 210ZM144 205C144 204.735 144.105 204.48 144.293 204.293C144.48 204.105 144.735 204 145 204C145.265 204 145.52 204.105 145.707 204.293C145.895 204.48 146 204.735 146 205C146 205.265 145.895 205.52 145.707 205.707C145.52 205.895 145.265 206 145 206C144.735 206 144.48 205.895 144.293 205.707C144.105 205.52 144 205.265 144 205ZM136 213C136 212.735 136.105 212.48 136.293 212.293C136.48 212.105 136.735 212 137 212C137.265 212 137.52 212.105 137.707 212.293C137.895 212.48 138 212.735 138 213C138 213.265 137.895 213.52 137.707 213.707C137.52 213.895 137.265 214 137 214C136.735 214 136.48 213.895 136.293 213.707C136.105 213.52 136 213.265 136 213ZM139 219C139 218.735 139.105 218.48 139.293 218.293C139.48 218.105 139.735 218 140 218C140.265 218 140.52 218.105 140.707 218.293C140.895 218.48 141 218.735 141 219C141 219.265 140.895 219.52 140.707 219.707C140.52 219.895 140.265 220 140 220C139.735 220 139.48 219.895 139.293 219.707C139.105 219.52 139 219.265 139 219ZM139 225C139 224.735 139.105 224.48 139.293 224.293C139.48 224.105 139.735 224 140 224C140.265 224 140.52 224.105 140.707 224.293C140.895 224.48 141 224.735 141 225C141 225.265 140.895 225.52 140.707 225.707C140.52 225.895 140.265 226 140 226C139.735 226 139.48 225.895 139.293 225.707C139.105 225.52 139 225.265 139 225ZM143 232C143 231.735 143.105 231.48 143.293 231.293C143.48 231.105 143.735 231 144 231C144.265 231 144.52 231.105 144.707 231.293C144.895 231.48 145 231.735 145 232C145 232.265 144.895 232.52 144.707 232.707C144.52 232.895 144.265 233 144 233C143.735 233 143.48 232.895 143.293 232.707C143.105 232.52 143 232.265 143 232ZM148 230C148 229.735 148.105 229.48 148.293 229.293C148.48 229.105 148.735 229 149 229C149.265 229 149.52 229.105 149.707 229.293C149.895 229.48 150 229.735 150 230C150 230.265 149.895 230.52 149.707 230.707C149.52 230.895 149.265 231 149 231C148.735 231 148.48 230.895 148.293 230.707C148.105 230.52 148 230.265 148 230ZM153 234C153 233.735 153.105 233.48 153.293 233.293C153.48 233.105 153.735 233 154 233C154.265 233 154.52 233.105 154.707 233.293C154.895 233.48 155 233.735 155 234C155 234.265 154.895 234.52 154.707 234.707C154.52 234.895 154.265 235 154 235C153.735 235 153.48 234.895 153.293 234.707C153.105 234.52 153 234.265 153 234ZM157 228C157 227.735 157.105 227.48 157.293 227.293C157.48 227.105 157.735 227 158 227C158.265 227 158.52 227.105 158.707 227.293C158.895 227.48 159 227.735 159 228C159 228.265 158.895 228.52 158.707 228.707C158.52 228.895 158.265 229 158 229C157.735 229 157.48 228.895 157.293 228.707C157.105 228.52 157 228.265 157 228ZM163 224C163 223.735 163.105 223.48 163.293 223.293C163.48 223.105 163.735 223 164 223C164.265 223 164.52 223.105 164.707 223.293C164.895 223.48 165 223.735 165 224C165 224.265 164.895 224.52 164.707 224.707C164.52 224.895 164.265 225 164 225C163.735 225 163.48 224.895 163.293 224.707C163.105 224.52 163 224.265 163 224ZM159 221C159 220.735 159.105 220.48 159.293 220.293C159.48 220.105 159.735 220 160 220C160.265 220 160.52 220.105 160.707 220.293C160.895 220.48 161 220.735 161 221C161 221.265 160.895 221.52 160.707 221.707C160.52 221.895 160.265 222 160 222C159.735 222 159.48 221.895 159.293 221.707C159.105 221.52 159 221.265 159 221ZM163 218C163 217.735 163.105 217.48 163.293 217.293C163.48 217.105 163.735 217 164 217C164.265 217 164.52 217.105 164.707 217.293C164.895 217.48 165 217.735 165 218C165 218.265 164.895 218.52 164.707 218.707C164.52 218.895 164.265 219 164 219C163.735 219 163.48 218.895 163.293 218.707C163.105 218.52 163 218.265 163 218ZM158 214C158 213.735 158.105 213.48 158.293 213.293C158.48 213.105 158.735 213 159 213C159.265 213 159.52 213.105 159.707 213.293C159.895 213.48 160 213.735 160 214C160 214.265 159.895 214.52 159.707 214.707C159.52 214.895 159.265 215 159 215C158.735 215 158.48 214.895 158.293 214.707C158.105 214.52 158 214.265 158 214ZM134 220C134 219.735 134.105 219.48 134.293 219.293C134.48 219.105 134.735 219 135 219C135.265 219 135.52 219.105 135.707 219.293C135.895 219.48 136 219.735 136 220C136 220.265 135.895 220.52 135.707 220.707C135.52 220.895 135.265 221 135 221C134.735 221 134.48 220.895 134.293 220.707C134.105 220.52 134 220.265 134 220ZM150 225C151.326 225 152.598 224.473 153.536 223.536C154.473 222.598 155 221.326 155 220C155 218.674 154.473 217.402 153.536 216.464C152.598 215.527 151.326 215 150 215C148.674 215 147.402 215.527 146.464 216.464C145.527 217.402 145 218.674 145 220C145 221.326 145.527 222.598 146.464 223.536C147.402 224.473 148.674 225 150 225V225ZM157 220C157 221.857 156.263 223.637 154.95 224.95C153.637 226.263 151.857 227 150 227C148.143 227 146.363 226.263 145.05 224.95C143.737 223.637 143 221.857 143 220C143 218.143 143.737 216.363 145.05 215.05C146.363 213.737 148.143 213 150 213C151.857 213 153.637 213.737 154.95 215.05C156.263 216.363 157 218.143 157 220V220ZM243 191C242.735 191 242.48 191.105 242.293 191.293C242.105 191.48 242 191.735 242 192C242 192.265 242.105 192.52 242.293 192.707C242.48 192.895 242.735 193 243 193H245C245.265 193 245.52 192.895 245.707 192.707C245.895 192.52 246 192.265 246 192C246 191.735 245.895 191.48 245.707 191.293C245.52 191.105 245.265 191 245 191H243ZM262 200C262 199.735 262.105 199.48 262.293 199.293C262.48 199.105 262.735 199 263 199H265C265.265 199 265.52 199.105 265.707 199.293C265.895 199.48 266 199.735 266 200C266 200.265 265.895 200.52 265.707 200.707C265.52 200.895 265.265 201 265 201H263C262.735 201 262.48 200.895 262.293 200.707C262.105 200.52 262 200.265 262 200ZM248 205C247.735 205 247.48 205.105 247.293 205.293C247.105 205.48 247 205.735 247 206C247 206.265 247.105 206.52 247.293 206.707C247.48 206.895 247.735 207 248 207H250C250.265 207 250.52 206.895 250.707 206.707C250.895 206.52 251 206.265 251 206C251 205.735 250.895 205.48 250.707 205.293C250.52 205.105 250.265 205 250 205H248ZM223 206C222.735 206 222.48 206.105 222.293 206.293C222.105 206.48 222 206.735 222 207C222 207.265 222.105 207.52 222.293 207.707C222.48 207.895 222.735 208 223 208H225C225.265 208 225.52 207.895 225.707 207.707C225.895 207.52 226 207.265 226 207C226 206.735 225.895 206.48 225.707 206.293C225.52 206.105 225.265 206 225 206H223ZM228 210C227.735 210 227.48 210.105 227.293 210.293C227.105 210.48 227 210.735 227 211C227 211.265 227.105 211.52 227.293 211.707C227.48 211.895 227.735 212 228 212H230C230.265 212 230.52 211.895 230.707 211.707C230.895 211.52 231 211.265 231 211C231 210.735 230.895 210.48 230.707 210.293C230.52 210.105 230.265 210 230 210H228ZM237 210C237 209.735 237.105 209.48 237.293 209.293C237.48 209.105 237.735 209 238 209H240C240.265 209 240.52 209.105 240.707 209.293C240.895 209.48 241 209.735 241 210C241 210.265 240.895 210.52 240.707 210.707C240.52 210.895 240.265 211 240 211H238C237.735 211 237.48 210.895 237.293 210.707C237.105 210.52 237 210.265 237 210ZM252 211C252 210.735 252.105 210.48 252.293 210.293C252.48 210.105 252.735 210 253 210H255C255.265 210 255.52 210.105 255.707 210.293C255.895 210.48 256 210.735 256 211C256 211.265 255.895 211.52 255.707 211.707C255.52 211.895 255.265 212 255 212H253C252.735 212 252.48 211.895 252.293 211.707C252.105 211.52 252 211.265 252 211ZM264 209C263.735 209 263.48 209.105 263.293 209.293C263.105 209.48 263 209.735 263 210C263 210.265 263.105 210.52 263.293 210.707C263.48 210.895 263.735 211 264 211H266C266.265 211 266.52 210.895 266.707 210.707C266.895 210.52 267 210.265 267 210C267 209.735 266.895 209.48 266.707 209.293C266.52 209.105 266.265 209 266 209H264ZM253 195C253 194.735 253.105 194.48 253.293 194.293C253.48 194.105 253.735 194 254 194H256C256.265 194 256.52 194.105 256.707 194.293C256.895 194.48 257 194.735 257 195C257 195.265 256.895 195.52 256.707 195.707C256.52 195.895 256.265 196 256 196H254C253.735 196 253.48 195.895 253.293 195.707C253.105 195.52 253 195.265 253 195ZM234 195C233.735 195 233.48 195.105 233.293 195.293C233.105 195.48 233 195.735 233 196C233 196.265 233.105 196.52 233.293 196.707C233.48 196.895 233.735 197 234 197H236C236.265 197 236.52 196.895 236.707 196.707C236.895 196.52 237 196.265 237 196C237 195.735 236.895 195.48 236.707 195.293C236.52 195.105 236.265 195 236 195H234ZM240 200C240 199.735 240.105 199.48 240.293 199.293C240.48 199.105 240.735 199 241 199H243C243.265 199 243.52 199.105 243.707 199.293C243.895 199.48 244 199.735 244 200C244 200.265 243.895 200.52 243.707 200.707C243.52 200.895 243.265 201 243 201H241C240.735 201 240.48 200.895 240.293 200.707C240.105 200.52 240 200.265 240 200ZM215 215C215 214.53 215.01 214.06 215.03 213.6C214.293 213.285 213.642 212.797 213.132 212.178C212.623 211.558 212.27 210.826 212.103 210.041C211.937 209.257 211.961 208.444 212.175 207.671C212.388 206.898 212.784 206.188 213.33 205.6C212.917 204.66 212.882 203.598 213.232 202.633C213.582 201.669 214.291 200.876 215.21 200.42C215.023 199.788 214.963 199.126 215.033 198.471C215.103 197.816 215.301 197.181 215.617 196.603C215.933 196.025 216.36 195.516 216.874 195.103C217.387 194.691 217.977 194.384 218.61 194.2C218.978 193.709 219.487 193.342 220.07 193.15C220.213 192.324 220.561 191.546 221.083 190.89C221.604 190.233 222.283 189.718 223.056 189.392C223.828 189.067 224.671 188.941 225.505 189.026C226.339 189.111 227.139 189.405 227.83 189.88C233.113 186.048 239.474 183.989 246 184C252.79 184 259.06 186.18 264.17 189.88C264.861 189.405 265.661 189.111 266.495 189.026C267.329 188.941 268.172 189.067 268.944 189.392C269.717 189.718 270.396 190.233 270.918 190.89C271.439 191.546 271.787 192.324 271.93 193.15C272.516 193.341 273.03 193.707 273.4 194.2C274.033 194.384 274.623 194.691 275.136 195.103C275.65 195.516 276.077 196.025 276.393 196.603C276.709 197.181 276.907 197.816 276.977 198.471C277.047 199.126 276.987 199.788 276.8 200.42C277.716 200.88 278.42 201.673 278.768 202.637C279.116 203.601 279.081 204.661 278.67 205.6C279.22 206.186 279.62 206.896 279.836 207.67C280.053 208.444 280.078 209.258 279.911 210.044C279.744 210.83 279.389 211.564 278.877 212.183C278.365 212.803 277.711 213.289 276.97 213.6C276.99 214.06 277 214.53 277 215V216H215V215V215ZM215.83 207.83C215.554 209.007 215.347 210.199 215.21 211.4C214.894 211.164 214.628 210.869 214.426 210.53C214.224 210.191 214.091 209.816 214.035 209.426C213.978 209.036 213.999 208.639 214.096 208.257C214.193 207.875 214.364 207.516 214.6 207.2C214.97 207.48 215.38 207.69 215.83 207.83V207.83ZM217.32 203.22C216.96 204.09 216.64 204.98 216.36 205.9C215.98 205.773 215.648 205.535 215.405 205.217C215.162 204.899 215.02 204.516 214.997 204.116C214.975 203.717 215.072 203.32 215.278 202.976C215.483 202.633 215.787 202.359 216.15 202.19C216.48 202.59 216.88 202.94 217.32 203.22V203.22ZM219.64 198.68C219.1 199.54 218.61 200.44 218.15 201.36C217.797 201.084 217.511 200.733 217.311 200.331C217.112 199.93 217.005 199.49 216.998 199.042C216.992 198.594 217.085 198.15 217.272 197.743C217.46 197.336 217.736 196.976 218.08 196.69C218.18 197.115 218.371 197.514 218.64 197.857C218.91 198.201 219.251 198.482 219.64 198.68V198.68ZM220.78 196.98C221.13 196.48 221.5 196 221.88 195.52C221.801 195.373 221.685 195.248 221.545 195.156C221.405 195.065 221.244 195.01 221.077 194.997C220.91 194.984 220.743 195.014 220.59 195.082C220.437 195.151 220.304 195.257 220.203 195.39C220.102 195.523 220.036 195.68 220.011 195.846C219.986 196.011 220.003 196.18 220.06 196.337C220.118 196.495 220.214 196.635 220.34 196.746C220.465 196.856 220.617 196.933 220.78 196.97V196.98ZM226.12 191.21C225.09 192.07 224.12 193 223.22 193.98C222.913 193.642 222.534 193.379 222.11 193.21C222.221 192.803 222.417 192.424 222.684 192.097C222.952 191.771 223.285 191.504 223.663 191.316C224.04 191.127 224.453 191.02 224.875 191.002C225.297 190.983 225.718 191.054 226.11 191.21H226.12ZM268.78 193.98C267.88 193 266.91 192.08 265.88 191.21C266.273 191.053 266.695 190.98 267.118 190.998C267.54 191.015 267.955 191.122 268.334 191.311C268.712 191.5 269.047 191.766 269.315 192.094C269.583 192.421 269.779 192.802 269.89 193.21C269.47 193.38 269.094 193.644 268.79 193.98H268.78ZM270.12 195.52C270.5 196 270.87 196.48 271.22 196.97C271.383 196.933 271.535 196.856 271.66 196.746C271.786 196.635 271.882 196.495 271.94 196.337C271.997 196.18 272.014 196.011 271.989 195.846C271.964 195.68 271.898 195.523 271.797 195.39C271.696 195.257 271.563 195.151 271.41 195.082C271.257 195.014 271.09 194.984 270.923 194.997C270.756 195.01 270.595 195.065 270.455 195.156C270.315 195.248 270.199 195.373 270.12 195.52ZM273.85 201.36C273.39 200.44 272.9 199.54 272.35 198.68C272.741 198.483 273.084 198.203 273.355 197.859C273.627 197.515 273.819 197.116 273.92 196.69C274.264 196.976 274.54 197.336 274.728 197.743C274.915 198.15 275.008 198.594 275.002 199.042C274.995 199.49 274.888 199.93 274.689 200.331C274.489 200.733 274.203 201.084 273.85 201.36V201.36ZM275.65 205.89C275.36 204.99 275.05 204.09 274.68 203.22C275.12 202.94 275.52 202.59 275.85 202.19C276.21 202.36 276.511 202.632 276.715 202.974C276.919 203.316 277.016 203.71 276.995 204.107C276.973 204.504 276.834 204.886 276.594 205.204C276.355 205.521 276.026 205.76 275.65 205.89ZM276.79 211.4C276.65 210.19 276.44 209 276.17 207.83C276.62 207.69 277.03 207.48 277.4 207.2C277.638 207.515 277.811 207.873 277.909 208.255C278.008 208.637 278.03 209.034 277.974 209.425C277.918 209.815 277.786 210.191 277.584 210.53C277.383 210.869 277.116 211.164 276.8 211.4H276.79ZM275 214C274.758 206.474 271.598 199.337 266.189 194.099C260.779 188.861 253.545 185.933 246.015 185.933C238.485 185.933 231.251 188.861 225.841 194.099C220.432 199.337 217.272 206.474 217.03 214H274.99H275ZM72.33 198.12C72.12 197.8 71.99 197.42 71.99 197V185H69.99V197C69.9957 197.822 70.2536 198.622 70.7289 199.292C71.2042 199.962 71.874 200.47 72.6475 200.747C73.421 201.024 74.261 201.057 75.0538 200.841C75.8466 200.625 76.5539 200.171 77.08 199.54C77.65 198.85 77.99 197.97 77.99 197V185H75.99V197C75.9913 197.263 75.9405 197.524 75.8405 197.767C75.7404 198.01 75.5931 198.231 75.4072 198.417C75.2212 198.603 75.0002 198.75 74.7569 198.85C74.5137 198.951 74.253 199.001 73.99 199C73.6624 199 73.3397 198.921 73.0502 198.767C72.7608 198.614 72.5135 198.391 72.33 198.12ZM75 176C75.38 176 75.74 175.96 76.1 175.88C76.2444 176.52 76.544 177.114 76.9722 177.611C77.4005 178.108 77.9443 178.492 78.5558 178.729C79.1673 178.966 79.8277 179.049 80.4789 178.971C81.1301 178.892 81.752 178.655 82.29 178.28C83.4169 180.34 84.0051 182.652 84 185V209C84 210.591 83.3679 212.117 82.2426 213.243C81.1174 214.368 79.5913 215 78 215H75V224C75 225.326 74.4732 226.598 73.5355 227.536C72.5979 228.473 71.3261 229 70 229C68.6739 229 67.4021 228.473 66.4645 227.536C65.5268 226.598 65 225.326 65 224V215H62C60.4087 215 58.8826 214.368 57.7574 213.243C56.6321 212.117 56 210.591 56 209V185C56 181.287 57.475 177.726 60.1005 175.101C62.726 172.475 66.287 171 70 171C70 172.326 70.5268 173.598 71.4645 174.536C72.4021 175.473 73.6739 176 75 176V176ZM58 191V203C57.999 203.393 58.1143 203.777 58.3314 204.105C58.5486 204.432 58.8577 204.688 59.22 204.84C59.6471 205.022 60.1241 205.049 60.5692 204.918C61.0144 204.787 61.4 204.504 61.66 204.12C61.87 203.8 62 203.42 62 203V191H64V203C64.0054 203.643 63.8547 204.279 63.5608 204.851C63.2669 205.423 62.8387 205.916 62.3127 206.287C61.7867 206.657 61.1787 206.895 60.5408 206.979C59.9029 207.063 59.2541 206.992 58.65 206.77C58.4248 206.69 58.2072 206.589 58 206.47V209C58 210.061 58.4214 211.078 59.1716 211.828C59.9217 212.579 60.9391 213 62 213H78C79.0609 213 80.0783 212.579 80.8284 211.828C81.5786 211.078 82 210.061 82 209V185C82.01 183.47 81.77 182.12 81.28 180.83C80.85 180.93 80.41 180.99 80 181C78.9461 181.001 77.9107 180.724 76.9978 180.197C76.085 179.67 75.3269 178.913 74.8 178C73.3486 177.958 71.9462 177.466 70.787 176.591C69.6278 175.717 68.7691 174.504 68.33 173.12C65.4654 173.523 62.8427 174.946 60.9446 177.129C59.0465 179.312 58.0008 182.107 58 185V191ZM67 215V224C67 224.796 67.3161 225.559 67.8787 226.121C68.4413 226.684 69.2044 227 70 227C70.7956 227 71.5587 226.684 72.1213 226.121C72.6839 225.559 73 224.796 73 224V215H67Z" fill="#9C92AC" fill-opacity="0.3"/>
<path fill-rule="evenodd" clip-rule="evenodd" d="M-17 191C-17.2652 191 -17.5196 191.105 -17.7071 191.293C-17.8946 191.48 -18 191.735 -18 192C-18 192.265 -17.8946 192.52 -17.7071 192.707C-17.5196 192.895 -17.2652 193 -17 193H-15C-14.7348 193 -14.4804 192.895 -14.2929 192.707C-14.1054 192.52 -14 192.265 -14 192C-14 191.735 -14.1054 191.48 -14.2929 191.293C-14.4804 191.105 -14.7348 191 -15 191H-17ZM2 200C2 199.735 2.10536 199.48 2.29289 199.293C2.48043 199.105 2.73478 199 3 199H5C5.26522 199 5.51957 199.105 5.70711 199.293C5.89464 199.48 6 199.735 6 200C6 200.265 5.89464 200.52 5.70711 200.707C5.51957 200.895 5.26522 201 5 201H3C2.73478 201 2.48043 200.895 2.29289 200.707C2.10536 200.52 2 200.265 2 200V200ZM-12 205C-12.2652 205 -12.5196 205.105 -12.7071 205.293C-12.8946 205.48 -13 205.735 -13 206C-13 206.265 -12.8946 206.52 -12.7071 206.707C-12.5196 206.895 -12.2652 207 -12 207H-10C-9.73478 207 -9.48043 206.895 -9.29289 206.707C-9.10536 206.52 -9 206.265 -9 206C-9 205.735 -9.10536 205.48 -9.29289 205.293C-9.48043 205.105 -9.73478 205 -10 205H-12ZM-37 206C-37.2652 206 -37.5196 206.105 -37.7071 206.293C-37.8946 206.48 -38 206.735 -38 207C-38 207.265 -37.8946 207.52 -37.7071 207.707C-37.5196 207.895 -37.2652 208 -37 208H-35C-34.7348 208 -34.4804 207.895 -34.2929 207.707C-34.1054 207.52 -34 207.265 -34 207C-34 206.735 -34.1054 206.48 -34.2929 206.293C-34.4804 206.105 -34.7348 206 -35 206H-37ZM-32 210C-32.2652 210 -32.5196 210.105 -32.7071 210.293C-32.8946 210.48 -33 210.735 -33 211C-33 211.265 -32.8946 211.52 -32.7071 211.707C-32.5196 211.895 -32.2652 212 -32 212H-30C-29.7348 212 -29.4804 211.895 -29.2929 211.707C-29.1054 211.52 -29 211.265 -29 211C-29 210.735 -29.1054 210.48 -29.2929 210.293C-29.4804 210.105 -29.7348 210 -30 210H-32ZM-23 210C-23 209.735 -22.8946 209.48 -22.7071 209.293C-22.5196 209.105 -22.2652 209 -22 209H-20C-19.7348 209 -19.4804 209.105 -19.2929 209.293C-19.1054 209.48 -19 209.735 -19 210C-19 210.265 -19.1054 210.52 -19.2929 210.707C-19.4804 210.895 -19.7348 211 -20 211H-22C-22.2652 211 -22.5196 210.895 -22.7071 210.707C-22.8946 210.52 -23 210.265 -23 210ZM-8 211C-8 210.735 -7.89464 210.48 -7.70711 210.293C-7.51957 210.105 -7.26522 210 -7 210H-5C-4.73478 210 -4.48043 210.105 -4.29289 210.293C-4.10536 210.48 -4 210.735 -4 211C-4 211.265 -4.10536 211.52 -4.29289 211.707C-4.48043 211.895 -4.73478 212 -5 212H-7C-7.26522 212 -7.51957 211.895 -7.70711 211.707C-7.89464 211.52 -8 211.265 -8 211ZM4 209C3.73478 209 3.48043 209.105 3.29289 209.293C3.10536 209.48 3 209.735 3 210C3 210.265 3.10536 210.52 3.29289 210.707C3.48043 210.895 3.73478 211 4 211H6C6.26522 211 6.51957 210.895 6.70711 210.707C6.89464 210.52 7 210.265 7 210C7 209.735 6.89464 209.48 6.70711 209.293C6.51957 209.105 6.26522 209 6 209H4ZM-7 195C-7 194.735 -6.89464 194.48 -6.70711 194.293C-6.51957 194.105 -6.26522 194 -6 194H-4C-3.73478 194 -3.48043 194.105 -3.29289 194.293C-3.10536 194.48 -3 194.735 -3 195C-3 195.265 -3.10536 195.52 -3.29289 195.707C-3.48043 195.895 -3.73478 196 -4 196H-6C-6.26522 196 -6.51957 195.895 -6.70711 195.707C-6.89464 195.52 -7 195.265 -7 195ZM-26 195C-26.2652 195 -26.5196 195.105 -26.7071 195.293C-26.8946 195.48 -27 195.735 -27 196C-27 196.265 -26.8946 196.52 -26.7071 196.707C-26.5196 196.895 -26.2652 197 -26 197H-24C-23.7348 197 -23.4804 196.895 -23.2929 196.707C-23.1054 196.52 -23 196.265 -23 196C-23 195.735 -23.1054 195.48 -23.2929 195.293C-23.4804 195.105 -23.7348 195 -24 195H-26ZM-20 200C-20 199.735 -19.8946 199.48 -19.7071 199.293C-19.5196 199.105 -19.2652 199 -19 199H-17C-16.7348 199 -16.4804 199.105 -16.2929 199.293C-16.1054 199.48 -16 199.735 -16 200C-16 200.265 -16.1054 200.52 -16.2929 200.707C-16.4804 200.895 -16.7348 201 -17 201H-19C-19.2652 201 -19.5196 200.895 -19.7071 200.707C-19.8946 200.52 -20 200.265 -20 200ZM-45 215C-45 214.53 -44.99 214.06 -44.97 213.6C-45.7074 213.285 -46.3583 212.797 -46.8676 212.178C-47.377 211.558 -47.7299 210.826 -47.8966 210.041C-48.0633 209.257 -48.0388 208.444 -47.8254 207.671C-47.6119 206.898 -47.2156 206.188 -46.67 205.6C-47.0829 204.66 -47.118 203.598 -46.7679 202.633C-46.4177 201.669 -45.7094 200.876 -44.79 200.42C-44.9769 199.788 -45.0371 199.126 -44.9672 198.471C-44.8973 197.816 -44.6987 197.181 -44.3827 196.603C-44.0668 196.025 -43.6398 195.516 -43.1262 195.103C-42.6126 194.691 -42.0226 194.384 -41.39 194.2C-41.0222 193.709 -40.5126 193.342 -39.93 193.15C-39.7874 192.324 -39.4392 191.546 -38.9175 190.89C-38.3958 190.233 -37.7173 189.718 -36.9444 189.392C-36.1716 189.067 -35.3292 188.941 -34.4949 189.026C-33.6606 189.111 -32.8611 189.405 -32.17 189.88C-26.8874 186.048 -20.526 183.989 -14 184C-7.21 184 -0.940002 186.18 4.17 189.88C4.86107 189.405 5.66056 189.111 6.49489 189.026C7.32921 188.941 8.17156 189.067 8.94441 189.392C9.71725 189.718 10.3958 190.233 10.9175 190.89C11.4392 191.546 11.7874 192.324 11.93 193.15C12.5162 193.341 13.0295 193.707 13.4 194.2C14.0326 194.384 14.6226 194.691 15.1362 195.103C15.6498 195.516 16.0768 196.025 16.3927 196.603C16.7087 197.181 16.9073 197.816 16.9772 198.471C17.0471 199.126 16.9869 199.788 16.8 200.42C17.7159 200.88 18.4205 201.673 18.7684 202.637C19.1163 203.601 19.0811 204.661 18.67 205.6C19.2201 206.186 19.6203 206.896 19.8364 207.67C20.0525 208.444 20.0782 209.258 19.9111 210.044C19.7441 210.83 19.3894 211.564 18.8772 212.183C18.3651 212.803 17.7107 213.289 16.97 213.6C16.99 214.06 17 214.53 17 215V216H-45V215V215ZM-44.17 207.83C-44.4463 209.007 -44.6533 210.199 -44.79 211.4C-45.1059 211.164 -45.3723 210.869 -45.574 210.53C-45.7757 210.191 -45.9086 209.816 -45.9653 209.426C-46.0219 209.036 -46.0011 208.639 -45.9042 208.257C-45.8072 207.875 -45.6359 207.516 -45.4 207.2C-45.03 207.48 -44.62 207.69 -44.17 207.83ZM-42.68 203.22C-43.04 204.09 -43.36 204.98 -43.64 205.9C-44.0195 205.773 -44.3523 205.535 -44.5952 205.217C-44.8382 204.899 -44.9801 204.516 -45.0028 204.116C-45.0254 203.717 -44.9276 203.32 -44.7221 202.976C-44.5166 202.633 -44.2128 202.359 -43.85 202.19C-43.52 202.59 -43.12 202.94 -42.68 203.22ZM-40.36 198.68C-40.9 199.54 -41.39 200.44 -41.85 201.36C-42.2029 201.084 -42.4894 200.733 -42.6887 200.331C-42.888 199.93 -42.9949 199.49 -43.0016 199.042C-43.0084 198.594 -42.9147 198.15 -42.7275 197.743C-42.5403 197.336 -42.2644 196.976 -41.92 196.69C-41.8205 197.115 -41.6294 197.514 -41.3599 197.857C-41.0905 198.201 -40.7492 198.482 -40.36 198.68V198.68ZM-39.22 196.98C-38.87 196.48 -38.5 196 -38.12 195.52C-38.1994 195.373 -38.3146 195.248 -38.4549 195.156C-38.5952 195.065 -38.7561 195.01 -38.923 194.997C-39.0899 194.984 -39.2574 195.014 -39.4101 195.082C-39.5628 195.151 -39.6958 195.257 -39.797 195.39C-39.8982 195.523 -39.9642 195.68 -39.9891 195.846C-40.0141 196.011 -39.997 196.18 -39.9396 196.337C-39.8822 196.495 -39.7862 196.635 -39.6605 196.746C-39.5348 196.856 -39.3833 196.933 -39.22 196.97V196.98ZM-33.88 191.21C-34.91 192.07 -35.88 193 -36.78 193.98C-37.0866 193.642 -37.4663 193.379 -37.89 193.21C-37.779 192.803 -37.5833 192.424 -37.3158 192.097C-37.0482 191.771 -36.7147 191.504 -36.3372 191.316C-35.9597 191.127 -35.5466 191.02 -35.1249 191.002C-34.7032 190.983 -34.2824 191.054 -33.89 191.21H-33.88ZM8.78 193.98C7.88 193 6.91 192.08 5.88 191.21C6.27293 191.053 6.69468 190.98 7.11755 190.998C7.54041 191.015 7.95483 191.122 8.33356 191.311C8.71229 191.5 9.04677 191.766 9.31502 192.094C9.58327 192.421 9.77922 192.802 9.89 193.21C9.46987 193.38 9.09378 193.644 8.79 193.98H8.78ZM10.12 195.52C10.5 196 10.87 196.48 11.22 196.97C11.3833 196.933 11.5348 196.856 11.6605 196.746C11.7862 196.635 11.8822 196.495 11.9396 196.337C11.997 196.18 12.0141 196.011 11.9891 195.846C11.9642 195.68 11.8982 195.523 11.797 195.39C11.6958 195.257 11.5628 195.151 11.4101 195.082C11.2574 195.014 11.0899 194.984 10.923 194.997C10.7561 195.01 10.5952 195.065 10.4549 195.156C10.3146 195.248 10.1994 195.373 10.12 195.52V195.52ZM13.85 201.36C13.39 200.44 12.9 199.54 12.35 198.68C12.7411 198.483 13.0843 198.203 13.3555 197.859C13.6267 197.515 13.8194 197.116 13.92 196.69C14.2644 196.976 14.5403 197.336 14.7275 197.743C14.9147 198.15 15.0084 198.594 15.0016 199.042C14.9949 199.49 14.888 199.93 14.6887 200.331C14.4894 200.733 14.2029 201.084 13.85 201.36V201.36ZM15.65 205.89C15.36 204.99 15.05 204.09 14.68 203.22C15.12 202.94 15.52 202.59 15.85 202.19C16.2099 202.359 16.511 202.632 16.7149 202.974C16.9189 203.316 17.0163 203.71 16.9949 204.107C16.9734 204.504 16.834 204.886 16.5944 205.204C16.3548 205.521 16.026 205.76 15.65 205.89ZM16.79 211.4C16.65 210.19 16.44 209 16.17 207.83C16.62 207.69 17.03 207.48 17.4 207.2C17.6377 207.515 17.8107 207.873 17.9092 208.255C18.0077 208.637 18.0297 209.034 17.974 209.425C17.9182 209.815 17.7858 210.191 17.5843 210.53C17.3828 210.869 17.1163 211.164 16.8 211.4H16.79ZM15 214C14.7578 206.474 11.598 199.337 6.18867 194.099C0.779367 188.861 -6.45521 185.933 -13.985 185.933C-21.5148 185.933 -28.7494 188.861 -34.1587 194.099C-39.568 199.337 -42.7278 206.474 -42.97 214H14.99H15Z" fill="#9C92AC" fill-opacity="0.3"/>
</g>
<defs>
<clipPath id="clip0_1_14">
<rect width="260" height="260" fill="white"/>
</clipPath>
</defs>
</svg>
